<?xml version="1.0" encoding="UTF-8"?><svg id="a" xmlns="http://www.w3.org/2000/svg" viewBox="0 0 162.41 137.18"><defs><style>.b{fill:#f7a62f;}</style></defs><path class="b" d="m81.36,137.18c-31.52,0-57.16-25.64-57.16-57.16s25.64-57.16,57.16-57.16,57.16,25.64,57.16,57.16-25.64,57.16-57.16,57.16Zm0-107.61c-27.82,0-50.45,22.63-50.45,50.45s22.63,50.45,50.45,50.45,50.45-22.63,50.45-50.45-22.63-50.45-50.45-50.45Zm0,56.45c-3.27,0-5.93-2.66-5.93-5.93s2.66-5.93,5.93-5.93,5.93,2.66,5.93,5.93-2.66,5.93-5.93,5.93Zm0-6.72c-.43,0-.79.35-.79.79s.35.79.79.79.79-.35.79-.79-.35-.79-.79-.79Z"/><path class="b" d="m144.51,53.4h-2.63c-.34,0-.62-.28-.62-.62h0C141.26,23.63,117.63,0,88.48,0h-15.45C43.88,0,20.25,23.63,20.25,52.78v.31c0,.34-.28.62-.62.62h-1.72c-9.89,0-17.9,8.02-17.9,17.9v17.46c0,9.89,8.02,17.9,17.9,17.9h14.17c.34,0,.62-.28.62-.62v-26.01h.03v-27.57c0-22.26,18.04-40.3,40.3-40.3h15.45c22.26,0,40.3,18.04,40.3,40.3v27.57h.02v25.83c0,.34.28.62.62.62h15.09c9.89,0,17.9-8.02,17.9-17.9v-17.59c0-9.89-8.02-17.9-17.9-17.9Z"/><path class="b" d="m81.46,99.61h-.2c-10.75,0-19.49-8.75-19.49-19.49v-.2c0-10.75,8.75-19.49,19.49-19.49h.2c10.75,0,19.49,8.75,19.49,19.49v.2c0,10.75-8.75,19.49-19.49,19.49Zm-.2-29.44c-5.37,0-9.75,4.37-9.75,9.75v.2c0,5.37,4.37,9.75,9.75,9.75h.2c5.37,0,9.75-4.37,9.75-9.75v-.2c0-5.37-4.37-9.75-9.75-9.75h-.2Z"/></svg>