<?xml version="1.0" encoding="utf-8"?>
<!-- Generator: Adobe Illustrator 27.4.0, SVG Export Plug-In . SVG Version: 6.00 Build 0)  -->
<svg version="1.2" baseProfile="tiny" id="Layer_1" xmlns="http://www.w3.org/2000/svg" xmlns:xlink="http://www.w3.org/1999/xlink"
	 x="0px" y="0px" width="170.08px" height="170.08px" viewBox="0 0 170.08 170.08" overflow="visible" xml:space="preserve">
<path fill="#FFFFFF" d="M84.77,151.3c-31.52,0-57.16-25.64-57.16-57.16s25.64-57.16,57.16-57.16c31.52,0,57.16,25.64,57.16,57.16
	S116.29,151.3,84.77,151.3z M84.77,43.69c-27.82,0-50.45,22.63-50.45,50.45c0,27.82,22.63,50.45,50.45,50.45
	s50.45-22.63,50.45-50.45C135.21,66.32,112.58,43.69,84.77,43.69z M84.77,100.14c-3.27,0-5.93-2.66-5.93-5.93
	c0-3.27,2.66-5.93,5.93-5.93c3.27,0,5.93,2.66,5.93,5.93C90.7,97.48,88.04,100.14,84.77,100.14z M84.77,93.42
	c-0.43,0-0.79,0.35-0.79,0.79c0,0.43,0.35,0.79,0.79,0.79c0.43,0,0.79-0.35,0.79-0.79C85.55,93.78,85.2,93.42,84.77,93.42z"/>
<path fill="#FFFFFF" d="M147.91,67.52h-2.63c-0.34,0-0.62-0.28-0.62-0.62v0c0-29.15-23.63-52.78-52.78-52.78H76.43
	c-29.15,0-52.78,23.63-52.78,52.78v0.31c0,0.34-0.28,0.62-0.62,0.62h-1.72c-9.89,0-17.9,8.02-17.9,17.9v17.46
	c0,9.89,8.02,17.9,17.9,17.9h14.17c0.34,0,0.62-0.28,0.62-0.62V94.46h0.03V66.89c0-22.26,18.04-40.3,40.3-40.3h15.45
	c22.26,0,40.3,18.04,40.3,40.3v27.57h0.02v25.83c0,0.34,0.28,0.62,0.62,0.62h15.09c9.89,0,17.9-8.02,17.9-17.9V85.42
	C165.82,75.53,157.8,67.52,147.91,67.52z"/>
<path fill="#FFFFFF" d="M84.87,113.73h-0.2c-10.75,0-19.49-8.75-19.49-19.49v-0.2c0-10.75,8.75-19.49,19.49-19.49h0.2
	c10.75,0,19.49,8.75,19.49,19.49v0.2C104.36,104.98,95.62,113.73,84.87,113.73z M84.67,84.29c-5.37,0-9.75,4.37-9.75,9.75v0.2
	c0,5.37,4.37,9.75,9.75,9.75h0.2c5.37,0,9.75-4.37,9.75-9.75v-0.2c0-5.37-4.37-9.75-9.75-9.75H84.67z"/>
</svg>
